<svg width="36" height="14" viewBox="0 0 36 14" fill="none" xmlns="http://www.w3.org/2000/svg">
<g id="List Item SVG">
<g id="Clip path group">
<mask id="mask0_6497_331" style="mask-type:luminance" maskUnits="userSpaceOnUse" x="0" y="1" width="36" height="13">
<g id="clip0_304_9928">
<path id="Vector" d="M36 1.07031H0V13.0703H36V1.07031Z" fill="white"/>
</g>
</mask>
<g mask="url(#mask0_6497_331)">
<g id="Group">
<path id="Vector_2" d="M31.6008 5.37042L32.2008 8.57042H29.8008L31.0008 5.47042L31.2008 4.87041L31.3008 4.37041C31.3008 4.47041 31.6008 5.37042 31.6008 5.37042ZM8.90078 12.4704L13.3008 1.57042H10.3008L7.60078 9.07042L7.30078 7.47042L6.30078 2.47042C6.20078 1.87042 5.70078 1.47042 4.90078 1.47042H0.400781L0.300781 1.67042C1.50078 1.87042 2.40078 2.27041 3.30078 2.87041L5.90078 12.5704H9.00078L8.90078 12.4704ZM15.6008 12.4704L17.4008 1.57042H14.6008L12.8008 12.6704H15.6008V12.4704ZM25.7008 8.97042C25.7008 7.77042 24.9008 6.77042 23.3008 5.87042C22.1008 5.37042 21.5008 4.97042 21.5008 4.57042C21.5008 3.97042 22.1008 3.67042 23.3008 3.67042C24.0008 3.67042 24.7008 3.67042 25.3008 4.17042H25.7008L26.0008 1.67042C25.1008 1.27041 24.3008 1.17041 23.4008 1.17041C22.5008 1.17041 21.7008 1.37041 21.0008 1.67042C20.3008 1.97042 19.7008 2.37042 19.2008 2.97042C18.8008 3.57042 18.6008 4.17041 18.6008 4.87041C18.6008 6.07042 19.4008 7.07042 21.2008 7.97042C22.1008 8.47042 22.6008 8.8704 22.6008 9.2704C22.6008 9.9704 22.0008 10.4704 20.9008 10.4704C20.0008 10.4704 19.0008 10.2704 18.2008 9.87041L17.8008 9.67041L17.3008 12.0704C18.3008 12.4704 19.4008 12.7704 20.5008 12.7704C21.8008 12.8704 23.0008 12.4704 24.0008 11.8704C25.2008 11.0704 25.7008 10.0704 25.7008 8.97042ZM35.7008 12.4704L33.4008 1.57042H31.2008C30.5008 1.57042 30.0008 1.77042 29.8008 2.47042L25.5008 12.6704H28.5008L29.0008 11.0704H32.8008L33.2008 12.7704H35.8008V12.4704H35.7008Z" fill="url(#paint0_linear_6497_331)"/>
</g>
</g>
</g>
</g>
<defs>
<linearGradient id="paint0_linear_6497_331" x1="1.58268" y1="6.97882" x2="35.2457" y2="6.97882" gradientUnits="userSpaceOnUse">
<stop stop-color="#2C3572"/>
<stop offset="1" stop-color="#3C62AB"/>
</linearGradient>
</defs>
</svg>
